<?xml version="1.0" encoding="UTF-8" standalone="no"?>
<!-- Created with Inkscape (http://www.inkscape.org/) -->

<svg
   xmlns:dc="http://purl.org/dc/elements/1.1/"
   xmlns:cc="http://creativecommons.org/ns#"
   xmlns:rdf="http://www.w3.org/1999/02/22-rdf-syntax-ns#"
   xmlns:svg="http://www.w3.org/2000/svg"
   xmlns="http://www.w3.org/2000/svg"
   xmlns:sodipodi="http://sodipodi.sourceforge.net/DTD/sodipodi-0.dtd"
   xmlns:inkscape="http://www.inkscape.org/namespaces/inkscape"
   width="210mm"
   height="297mm"
   viewBox="0 0 210 297"
   version="1.1"
   id="svg8449"
   inkscape:version="0.92.2 (5c3e80d, 2017-08-06)"
   sodipodi:docname="warning_stickers.svg">
  <defs
     id="defs8443" />
  <sodipodi:namedview
     id="base"
     pagecolor="#ffffff"
     bordercolor="#666666"
     borderopacity="1.0"
     inkscape:pageopacity="0.0"
     inkscape:pageshadow="2"
     inkscape:zoom="0.39863525"
     inkscape:cx="567.04238"
     inkscape:cy="850.9041"
     inkscape:document-units="mm"
     inkscape:current-layer="layer1"
     showgrid="false"
     inkscape:window-width="1366"
     inkscape:window-height="719"
     inkscape:window-x="0"
     inkscape:window-y="0"
     inkscape:window-maximized="1" />
  <metadata
     id="metadata8446">
    <rdf:RDF>
      <cc:Work
         rdf:about="">
        <dc:format>image/svg+xml</dc:format>
        <dc:type
           rdf:resource="http://purl.org/dc/dcmitype/StillImage" />
        <dc:title></dc:title>
      </cc:Work>
    </rdf:RDF>
  </metadata>
  <g
     inkscape:label="Layer 1"
     inkscape:groupmode="layer"
     id="layer1">
    <rect
       style="opacity:1;vector-effect:none;fill:#ff0000;fill-opacity:0.49425289;stroke:#000000;stroke-width:5.79946136;stroke-linecap:butt;stroke-linejoin:miter;stroke-miterlimit:4;stroke-dasharray:none;stroke-dashoffset:0;stroke-opacity:1"
       id="rect8451-2-8"
       width="175.44359"
       height="122.45899"
       x="17.278206"
       y="18.139605" />
    <rect
       style="opacity:1;vector-effect:none;fill:#ffffff;fill-opacity:1;stroke:#000000;stroke-width:2.48289824;stroke-linecap:butt;stroke-linejoin:miter;stroke-miterlimit:4;stroke-dasharray:none;stroke-dashoffset:0;stroke-opacity:1"
       id="rect8451-9-3-8"
       width="74.235313"
       height="62.634636"
       x="110.93964"
       y="40.625702"
       ry="9.5049458" />
    <rect
       style="opacity:1;vector-effect:none;fill:#00ff00;fill-opacity:1;stroke:#000000;stroke-width:1.81440628;stroke-linecap:butt;stroke-linejoin:miter;stroke-miterlimit:4;stroke-dasharray:none;stroke-dashoffset:0;stroke-opacity:1"
       id="rect8451-9-6-6-6"
       width="159.38315"
       height="18.577349"
       x="26.395746"
       y="108.31419"
       ry="4.7157903" />
    <text
       xml:space="preserve"
       style="font-style:normal;font-weight:normal;font-size:17.8506546px;line-height:1.25;font-family:sans-serif;letter-spacing:0px;word-spacing:0px;fill:#ffffff;fill-opacity:1;stroke:#000000;stroke-width:0.44626632;stroke-opacity:1"
       x="67.535255"
       y="124.10075"
       id="text9089-0-8"><tspan
         sodipodi:role="line"
         id="tspan9087-5-3"
         x="67.535255"
         y="124.10075"
         style="fill:#ffffff;stroke:#000000;stroke-width:0.44626632;stroke-opacity:1">PASSED</tspan></text>
    <flowRoot
       xml:space="preserve"
       id="flowRoot9154-8"
       style="font-style:normal;font-weight:normal;font-size:40px;line-height:1;font-family:sans-serif;letter-spacing:0px;word-spacing:0px;fill:#000000;fill-opacity:1;stroke:none"
       transform="matrix(0.17793324,0,0,0.17793324,23.07621,-177.17006)"><flowRegion
         id="flowRegion9156-3"
         style="line-height:1"><rect
           id="rect9158-3"
           width="396.68164"
           height="343.50653"
           x="514.32721"
           y="1232.5363"
           style="line-height:1" /></flowRegion><flowPara
         style="font-size:18.66666603px;line-height:0.80000001"
         id="flowPara9208-3">Notice of inspection on the ... of ...... in the year ................. The area known as .........................................................</flowPara><flowPara
         style="font-size:18.66666603px;line-height:0.80000001"
         id="flowPara9244-8">.............................................................</flowPara><flowPara
         style="font-size:18.66666603px;line-height:0.80000001"
         id="flowPara9223-0">was found to have ...............................</flowPara><flowPara
         style="font-size:18.66666603px;line-height:0.80000001"
         id="flowPara9238-4">.............................................................</flowPara><flowPara
         style="font-size:18.66666603px;line-height:0.80000001"
         id="flowPara9240-7">.............................................................</flowPara><flowPara
         style="font-size:18.66666603px;line-height:0.80000001"
         id="flowPara9242-6">.............................................................</flowPara></flowRoot>    <text
       xml:space="preserve"
       style="font-style:normal;font-weight:normal;font-size:7.11216354px;line-height:1.25;font-family:sans-serif;letter-spacing:0px;word-spacing:0px;fill:#ffffff;fill-opacity:1;stroke:#000000;stroke-width:0.08880141;stroke-miterlimit:4;stroke-dasharray:none;stroke-opacity:1"
       x="40.316349"
       y="134.99419"
       id="text9364-8"><tspan
         sodipodi:role="line"
         id="tspan9362-7"
         x="40.316349"
         y="134.99419"
         style="fill:#ffffff;stroke:#000000;stroke-width:0.08880141;stroke-miterlimit:4;stroke-dasharray:none;stroke-opacity:1">http://shrimping.it/project/fearitself</tspan></text>
    <rect
       style="opacity:1;vector-effect:none;fill:#01f3ff;fill-opacity:1;stroke:#000000;stroke-width:0.94585973;stroke-linecap:butt;stroke-linejoin:miter;stroke-miterlimit:4;stroke-dasharray:none;stroke-dashoffset:0;stroke-opacity:1"
       id="rect8451-9-6-6-6-9"
       width="71.482895"
       height="11.25663"
       x="114.28851"
       y="24.85388"
       ry="2.8574533" />
    <text
       xml:space="preserve"
       style="font-style:normal;font-weight:normal;font-size:5.55344772px;line-height:1.25;font-family:sans-serif;letter-spacing:0px;word-spacing:0px;fill:#ffffff;fill-opacity:1;stroke:none;stroke-width:0.13883619"
       x="116.88418"
       y="32.014275"
       id="text9089-0-8-0"><tspan
         sodipodi:role="line"
         id="tspan9087-5-3-3"
         x="116.88418"
         y="32.014275"
         style="fill:#000000;stroke-width:0.13883619">Certificate of Inspection</tspan></text>
    <g
       id="g8350-0-8-8"
       transform="matrix(0.84812285,0,0,0.84812285,217.2887,7.1787409)">
      <circle
         r="45.21719"
         cy="64.922623"
         cx="-181.42857"
         id="path8190-4-2-9-9"
         style="opacity:1;vector-effect:none;fill:#000000;fill-opacity:1;stroke:none;stroke-width:23.58600998;stroke-linecap:butt;stroke-linejoin:miter;stroke-miterlimit:4;stroke-dasharray:none;stroke-dashoffset:0;stroke-opacity:1" />
      <path
         sodipodi:nodetypes="cccccccccaacccccccccccccscccccscccccccaaccsccscccccsscccsccccccscccccccccsscccccccsccccccccccc"
         inkscape:connector-curvature="0"
         id="path8170-09-9-2-0"
         d="m -181.42881,26.257015 c -21.35426,5e-5 -38.66531,17.311081 -38.66536,38.66533 -2.4e-4,21.354471 17.31089,38.665815 38.66536,38.665865 21.35465,2.2e-4 38.66607,-17.311204 38.66584,-38.665865 -6e-5,-21.35444 -17.3114,-38.66554 -38.66584,-38.66533 z m -7.27967,2.65977 c 0.19989,0 -0.18468,0.34335 -1.20922,1.02733 -3.07589,2.05401 -5.59803,5.58546 -6.52159,9.13125 -0.52419,2.01258 -0.51694,5.823291 0.0151,7.885291 1.43635,5.567389 4.65789,7.35576 6.24581,11.38143 1.85226,4.69582 5.68805,10.018049 3.73962,14.6748 -0.12482,0.29832 -0.83767,0.489371 -0.83767,0.489371 l -1.80713,-1.800911 c -3.18341,-3.172121 -6.85429,-11.45078 -11.3316,-11.42302 -8.33837,0.0517 -14.75629,6.069809 -15.46109,14.49782 -0.11477,1.37273 -0.20491,1.68079 -0.34726,1.191149 -0.31782,-1.095349 -0.22355,-4.853541 0.17365,-6.922058 1.26566,-6.591562 5.24761,-11.889952 11.16676,-14.857492 1.0019,-0.502309 1.99927,-0.966409 2.21639,-1.031478 0.32525,-0.0975 0.39754,-0.789541 0.41031,-3.933082 0.0177,-4.39436 0.4085,-6.2884 1.988,-9.6361 1.98171,-4.20026 5.16814,-7.51996 9.26248,-9.65007 1.31334,-0.68328 2.09762,-1.02478 2.29754,-1.02423 z m 15.41404,0.31317 c 0.21696,0.0246 1.19399,0.50403 2.61536,1.31206 4.71934,2.68296 8.42571,7.5052 9.8738,12.84727 0.42119,1.553771 0.543,2.758311 0.52554,5.19763 -0.0124,1.74625 -0.059,3.456681 -0.10335,3.800801 -0.0714,0.55496 0.17979,0.738949 2.22054,1.62729 3.89991,1.69759 6.78583,4.306599 9.06818,8.197961 2.15587,3.675689 3.1528,8.170968 2.7864,12.567708 l -0.13229,1.5875 -0.33382,-2.45981 c -0.40257,-2.96786 -1.21561,-5.065548 -2.85306,-7.36028 -2.99794,-4.201189 -8.30654,-6.726801 -13.36302,-6.35776 -4.18494,0.305462 -7.66487,8.711571 -10.61381,11.75738 l -1.49863,1.547712 c 0,0 -0.79934,-0.135311 -0.94877,-0.452181 -2.16914,-4.599911 1.88316,-10.05119 3.69724,-14.802332 1.61966,-4.241937 4.98729,-5.940718 6.34711,-12.052798 1.3547,-6.089151 -1.36543,-12.694691 -6.78823,-16.484291 -0.48575,-0.33946 -0.62936,-0.48863 -0.49919,-0.47386 z m 11.79412,34.331241 c 1.55626,0.038 1.54255,0.45974 1.18494,3.40083 -0.76076,6.256679 -3.65128,11.357211 -8.48683,14.975311 -0.8654,0.647509 -2.7333,1.70688 -3.00963,1.70688 -0.0687,0 -0.35574,-0.327422 -0.6377,-0.727612 -0.59793,-0.848699 -1.49736,-2.603209 -1.74302,-3.39928 -0.14272,-0.46242 0.0825,-0.711948 1.35495,-1.50223 4.08033,-2.534258 6.71211,-6.99336 7.1763,-12.158951 0.19915,-2.216308 0.24937,-2.250278 3.3941,-2.293908 0.28998,-0.004 0.54456,-0.006 0.76689,0 z m -37.92947,0.02061 c 0.82156,0.0114 1.56869,0.0829 1.84536,0.188101 0.62135,0.236238 0.68006,0.407349 0.80097,2.325449 0.30308,4.807979 2.838,9.115981 7.01768,11.926909 0.76398,0.513791 1.38906,1.021482 1.38906,1.128101 0,0.83434 -1.97937,4.77978 -2.38125,4.746501 -0.0728,-0.006 -0.9062,-0.522711 -1.85208,-1.148271 -4.47358,-2.958491 -8.02529,-7.992322 -9.26198,-13.12736 -0.19272,-0.80028 -0.3607,-2.467261 -0.37309,-3.704162 l -0.0222,-2.248958 2.00607,-0.0765 c 0.27586,-0.01061 0.55764,-0.01381 0.83148,-0.01 z m 20.9274,10.94934 1.01595,0.571018 c 1.15848,0.651121 1.14813,0.620901 0.62529,1.872253 -1.52585,3.651879 -1.21862,2.471647 0.73898,6.272868 1.1467,2.226652 4.56531,5.578549 6.79545,6.663161 4.47942,2.178529 9.75106,2.246868 13.83223,0.1788 1.84306,-0.933971 1.30035,-0.306379 -0.82888,0.958588 -2.43766,1.448171 -4.77811,2.328813 -7.41609,2.791042 -2.81855,0.493869 -4.72435,0.4913 -7.37166,-0.0109 -3.32573,-0.63098 -5.83216,-1.751999 -8.69093,-3.88657 -0.74083,-0.55317 -1.4487,-1.005628 -1.57303,-1.005628 -0.12435,0 -0.53244,0.293388 -0.90693,0.652139 -1.0681,1.023329 -4.68943,2.982249 -6.61459,3.578098 -3.54481,1.097093 -6.51536,1.299261 -9.93116,0.675402 -1.01864,-0.18606 -2.44327,-0.53975 -3.16571,-0.786 -1.71434,-0.584391 -5.08754,-2.36778 -6.09471,-3.222022 l -0.79375,-0.672827 1.36528,0.673859 c 5.51278,2.720851 11.74181,2.203691 16.53749,-1.372521 1.80486,-1.345909 2.55511,-2.166969 3.90726,-4.27778 2.23794,-4.1666 3.03126,-2.667029 1.63917,-6.72142 -0.32406,-0.926489 -0.55366,-1.70929 -0.51003,-1.739429 0.0436,-0.0301 0.44923,-0.30948 0.90125,-0.621159 l 0.82163,-0.566891 1.02011,0.519869 c 1.2937,0.65958 2.37587,0.659371 3.67262,-0.003 z"
         style="opacity:1;vector-effect:none;fill:#ffec01;fill-opacity:1;stroke:none;stroke-width:7.51900101;stroke-linecap:butt;stroke-linejoin:miter;stroke-miterlimit:4;stroke-dasharray:none;stroke-dashoffset:0;stroke-opacity:1" />
      <path
         sodipodi:nodetypes="scccsccccscccsccccccccccccccccccccccccc"
         id="path6768-7-0-2-1-4-8-6"
         d="m -181.42876,29.499945 c -1.95382,0 -3.8152,0.39602 -5.50816,1.11207 -1.69294,0.71606 -3.21739,1.75205 -4.49776,3.03243 -1.2804,1.28039 -2.31683,2.80483 -3.03291,4.49779 -0.71605,1.69295 -1.11159,3.55433 -1.11159,5.50814 0,1.9538 0.39554,3.81518 1.11159,5.508121 4.57295,8.08567 3.30837,1.10303 11.59181,24.347099 0.77719,0.739931 2.1168,0.73995 2.89403,0 8.57684,-24.641309 6.84167,-15.51274 11.59181,-24.347099 0.71605,-1.692941 1.11206,-3.554321 1.11206,-5.508121 0,-1.95381 -0.39601,-3.81519 -1.11206,-5.50814 -0.71607,-1.69296 -1.75253,-3.2174 -3.03289,-4.49779 -1.2804,-1.28038 -2.80482,-2.31637 -4.4978,-3.03243 -1.69297,-0.71605 -3.55433,-1.11207 -5.50813,-1.11207 z m -5.45225,15.48427 c 1.02829,-6.9e-5 1.86199,0.83342 1.86217,1.86171 6e-5,1.02846 -0.83371,1.86222 -1.86217,1.862151 -1.02848,6.9e-5 -1.86223,-0.833681 -1.86217,-1.862151 1.9e-4,-1.02829 0.83388,-1.861789 1.86217,-1.86171 z m 10.90448,0 c 1.02829,-6.9e-5 1.86198,0.83342 1.86215,1.86171 7e-5,1.02846 -0.83368,1.86222 -1.86215,1.862151 -1.02846,6.9e-5 -1.86222,-0.833691 -1.86216,-1.862151 1.9e-4,-1.02829 0.83387,-1.861779 1.86216,-1.86171 z m -7.06834,6.002101 c 0.30462,1.59e-4 0.55152,0.24707 0.55169,0.55167 8e-5,0.30481 -0.24688,0.55194 -0.55169,0.55215 -0.30497,1.19e-4 -0.55222,-0.24717 -0.55214,-0.55215 1.7e-4,-0.30479 0.24735,-0.55178 0.55214,-0.55167 z m 3.2322,0 c 0.30481,-1.1e-4 0.552,0.24687 0.55215,0.55167 8e-5,0.30499 -0.24717,0.552269 -0.55215,0.55215 -0.30479,-2.1e-4 -0.55175,-0.24736 -0.55167,-0.55215 1.6e-4,-0.3046 0.24705,-0.551511 0.55167,-0.55167 z m -1.61609,2.214321 c 1.35364,5.8e-5 2.45096,3.455159 2.45096,7.717179 0,4.26203 -1.09733,7.71712 -2.45096,7.71717 -1.35365,0 -2.45099,-3.455119 -2.45096,-7.71717 -3e-5,-4.26206 1.09731,-7.717179 2.45096,-7.717179 z"
         style="opacity:1;fill:#000000;fill-opacity:1;stroke:none;stroke-width:0.7487604;stroke-miterlimit:4;stroke-dasharray:none;stroke-opacity:1"
         inkscape:connector-curvature="0" />
    </g>
    <rect
       style="opacity:1;vector-effect:none;fill:#28ff00;fill-opacity:0.49425289;stroke:#000000;stroke-width:5.79946136;stroke-linecap:butt;stroke-linejoin:miter;stroke-miterlimit:4;stroke-dasharray:none;stroke-dashoffset:0;stroke-opacity:1"
       id="rect8451-2-8-7"
       width="175.44359"
       height="122.45899"
       x="17.278206"
       y="156.4014" />
    <rect
       style="opacity:1;vector-effect:none;fill:#ffffff;fill-opacity:1;stroke:#000000;stroke-width:2.48289824;stroke-linecap:butt;stroke-linejoin:miter;stroke-miterlimit:4;stroke-dasharray:none;stroke-dashoffset:0;stroke-opacity:1"
       id="rect8451-9-3-8-9"
       width="74.235313"
       height="62.634636"
       x="110.93964"
       y="178.88751"
       ry="9.5049458" />
    <rect
       style="opacity:1;vector-effect:none;fill:#ff0000;fill-opacity:1;stroke:#000000;stroke-width:1.81440639;stroke-linecap:butt;stroke-linejoin:miter;stroke-miterlimit:4;stroke-dasharray:none;stroke-dashoffset:0;stroke-opacity:1"
       id="rect8451-9-6-6-6-3"
       width="159.38315"
       height="18.577349"
       x="26.395748"
       y="246.57599"
       ry="4.7157903" />
    <text
       xml:space="preserve"
       style="font-style:normal;font-weight:normal;font-size:17.8506546px;line-height:1.25;font-family:sans-serif;letter-spacing:0px;word-spacing:0px;fill:#ffffff;fill-opacity:1;stroke:#000000;stroke-width:0.44626632;stroke-opacity:1"
       x="75.192963"
       y="262.36255"
       id="text9089-0-8-9"><tspan
         sodipodi:role="line"
         id="tspan9087-5-3-2"
         x="75.192963"
         y="262.36255"
         style="fill:#ffffff;stroke:#000000;stroke-width:0.44626632;stroke-opacity:1">FAILED</tspan></text>
    <flowRoot
       xml:space="preserve"
       id="flowRoot9154-8-8"
       style="font-style:normal;font-weight:normal;font-size:40px;line-height:1;font-family:sans-serif;letter-spacing:0px;word-spacing:0px;fill:#000000;fill-opacity:1;stroke:none"
       transform="matrix(0.17793324,0,0,0.17793324,23.076211,-38.908256)"><flowRegion
         id="flowRegion9156-3-3"
         style="line-height:1"><rect
           id="rect9158-3-0"
           width="396.68164"
           height="343.50653"
           x="514.32721"
           y="1232.5363"
           style="line-height:1" /></flowRegion><flowPara
         style="font-size:18.66666603px;line-height:0.80000001"
         id="flowPara9208-3-1">Notice of inspection on the ... of ...... in the year ................. The area known as .........................................................</flowPara><flowPara
         style="font-size:18.66666603px;line-height:0.80000001"
         id="flowPara9244-8-7">.............................................................</flowPara><flowPara
         style="font-size:18.66666603px;line-height:0.80000001"
         id="flowPara9223-0-8">was found to have ...............................</flowPara><flowPara
         style="font-size:18.66666603px;line-height:0.80000001"
         id="flowPara9238-4-9">.............................................................</flowPara><flowPara
         style="font-size:18.66666603px;line-height:0.80000001"
         id="flowPara9240-7-1">.............................................................</flowPara><flowPara
         style="font-size:18.66666603px;line-height:0.80000001"
         id="flowPara9242-6-5">.............................................................</flowPara></flowRoot>    <text
       xml:space="preserve"
       style="font-style:normal;font-weight:normal;font-size:7.11216402px;line-height:1.25;font-family:sans-serif;letter-spacing:0px;word-spacing:0px;fill:#ffffff;fill-opacity:1;stroke:#000000;stroke-width:0.08880141;stroke-miterlimit:4;stroke-dasharray:none;stroke-opacity:1"
       x="40.316353"
       y="273.25598"
       id="text9364-8-4"><tspan
         sodipodi:role="line"
         id="tspan9362-7-9"
         x="40.316353"
         y="273.25598"
         style="fill:#ffffff;stroke:#000000;stroke-width:0.08880141;stroke-miterlimit:4;stroke-dasharray:none;stroke-opacity:1">http://shrimping.it/project/fearitself</tspan></text>
    <rect
       style="opacity:1;vector-effect:none;fill:#01f3ff;fill-opacity:1;stroke:#000000;stroke-width:0.94585973;stroke-linecap:butt;stroke-linejoin:miter;stroke-miterlimit:4;stroke-dasharray:none;stroke-dashoffset:0;stroke-opacity:1"
       id="rect8451-9-6-6-6-9-5"
       width="71.482895"
       height="11.25663"
       x="114.28851"
       y="163.11569"
       ry="2.8574533" />
    <text
       xml:space="preserve"
       style="font-style:normal;font-weight:normal;font-size:5.55344772px;line-height:1.25;font-family:sans-serif;letter-spacing:0px;word-spacing:0px;fill:#ffffff;fill-opacity:1;stroke:none;stroke-width:0.13883619"
       x="116.88418"
       y="170.27608"
       id="text9089-0-8-0-7"><tspan
         sodipodi:role="line"
         id="tspan9087-5-3-3-4"
         x="116.88418"
         y="170.27608"
         style="fill:#000000;stroke-width:0.13883619">Certificate of Inspection</tspan></text>
    <g
       id="g8350-0-8-8-9"
       transform="matrix(0.84812285,0,0,0.84812285,217.2887,145.44055)">
      <circle
         r="45.21719"
         cy="64.922623"
         cx="-181.42857"
         id="path8190-4-2-9-9-9"
         style="opacity:1;vector-effect:none;fill:#000000;fill-opacity:1;stroke:none;stroke-width:23.58600998;stroke-linecap:butt;stroke-linejoin:miter;stroke-miterlimit:4;stroke-dasharray:none;stroke-dashoffset:0;stroke-opacity:1" />
      <path
         sodipodi:nodetypes="cccccccccaacccccccccccccscccccscccccccaaccsccscccccsscccsccccccscccccccccsscccccccsccccccccccc"
         inkscape:connector-curvature="0"
         id="path8170-09-9-2-0-4"
         d="m -181.42881,26.257015 c -21.35426,5e-5 -38.66531,17.311081 -38.66536,38.66533 -2.4e-4,21.354471 17.31089,38.665815 38.66536,38.665865 21.35465,2.2e-4 38.66607,-17.311204 38.66584,-38.665865 -6e-5,-21.35444 -17.3114,-38.66554 -38.66584,-38.66533 z m -7.27967,2.65977 c 0.19989,0 -0.18468,0.34335 -1.20922,1.02733 -3.07589,2.05401 -5.59803,5.58546 -6.52159,9.13125 -0.52419,2.01258 -0.51694,5.823291 0.0151,7.885291 1.43635,5.567389 4.65789,7.35576 6.24581,11.38143 1.85226,4.69582 5.68805,10.018049 3.73962,14.6748 -0.12482,0.29832 -0.83767,0.489371 -0.83767,0.489371 l -1.80713,-1.800911 c -3.18341,-3.172121 -6.85429,-11.45078 -11.3316,-11.42302 -8.33837,0.0517 -14.75629,6.069809 -15.46109,14.49782 -0.11477,1.37273 -0.20491,1.68079 -0.34726,1.191149 -0.31782,-1.095349 -0.22355,-4.853541 0.17365,-6.922058 1.26566,-6.591562 5.24761,-11.889952 11.16676,-14.857492 1.0019,-0.502309 1.99927,-0.966409 2.21639,-1.031478 0.32525,-0.0975 0.39754,-0.789541 0.41031,-3.933082 0.0177,-4.39436 0.4085,-6.2884 1.988,-9.6361 1.98171,-4.20026 5.16814,-7.51996 9.26248,-9.65007 1.31334,-0.68328 2.09762,-1.02478 2.29754,-1.02423 z m 15.41404,0.31317 c 0.21696,0.0246 1.19399,0.50403 2.61536,1.31206 4.71934,2.68296 8.42571,7.5052 9.8738,12.84727 0.42119,1.553771 0.543,2.758311 0.52554,5.19763 -0.0124,1.74625 -0.059,3.456681 -0.10335,3.800801 -0.0714,0.55496 0.17979,0.738949 2.22054,1.62729 3.89991,1.69759 6.78583,4.306599 9.06818,8.197961 2.15587,3.675689 3.1528,8.170968 2.7864,12.567708 l -0.13229,1.5875 -0.33382,-2.45981 c -0.40257,-2.96786 -1.21561,-5.065548 -2.85306,-7.36028 -2.99794,-4.201189 -8.30654,-6.726801 -13.36302,-6.35776 -4.18494,0.305462 -7.66487,8.711571 -10.61381,11.75738 l -1.49863,1.547712 c 0,0 -0.79934,-0.135311 -0.94877,-0.452181 -2.16914,-4.599911 1.88316,-10.05119 3.69724,-14.802332 1.61966,-4.241937 4.98729,-5.940718 6.34711,-12.052798 1.3547,-6.089151 -1.36543,-12.694691 -6.78823,-16.484291 -0.48575,-0.33946 -0.62936,-0.48863 -0.49919,-0.47386 z m 11.79412,34.331241 c 1.55626,0.038 1.54255,0.45974 1.18494,3.40083 -0.76076,6.256679 -3.65128,11.357211 -8.48683,14.975311 -0.8654,0.647509 -2.7333,1.70688 -3.00963,1.70688 -0.0687,0 -0.35574,-0.327422 -0.6377,-0.727612 -0.59793,-0.848699 -1.49736,-2.603209 -1.74302,-3.39928 -0.14272,-0.46242 0.0825,-0.711948 1.35495,-1.50223 4.08033,-2.534258 6.71211,-6.99336 7.1763,-12.158951 0.19915,-2.216308 0.24937,-2.250278 3.3941,-2.293908 0.28998,-0.004 0.54456,-0.006 0.76689,0 z m -37.92947,0.02061 c 0.82156,0.0114 1.56869,0.0829 1.84536,0.188101 0.62135,0.236238 0.68006,0.407349 0.80097,2.325449 0.30308,4.807979 2.838,9.115981 7.01768,11.926909 0.76398,0.513791 1.38906,1.021482 1.38906,1.128101 0,0.83434 -1.97937,4.77978 -2.38125,4.746501 -0.0728,-0.006 -0.9062,-0.522711 -1.85208,-1.148271 -4.47358,-2.958491 -8.02529,-7.992322 -9.26198,-13.12736 -0.19272,-0.80028 -0.3607,-2.467261 -0.37309,-3.704162 l -0.0222,-2.248958 2.00607,-0.0765 c 0.27586,-0.01061 0.55764,-0.01381 0.83148,-0.01 z m 20.9274,10.94934 1.01595,0.571018 c 1.15848,0.651121 1.14813,0.620901 0.62529,1.872253 -1.52585,3.651879 -1.21862,2.471647 0.73898,6.272868 1.1467,2.226652 4.56531,5.578549 6.79545,6.663161 4.47942,2.178529 9.75106,2.246868 13.83223,0.1788 1.84306,-0.933971 1.30035,-0.306379 -0.82888,0.958588 -2.43766,1.448171 -4.77811,2.328813 -7.41609,2.791042 -2.81855,0.493869 -4.72435,0.4913 -7.37166,-0.0109 -3.32573,-0.63098 -5.83216,-1.751999 -8.69093,-3.88657 -0.74083,-0.55317 -1.4487,-1.005628 -1.57303,-1.005628 -0.12435,0 -0.53244,0.293388 -0.90693,0.652139 -1.0681,1.023329 -4.68943,2.982249 -6.61459,3.578098 -3.54481,1.097093 -6.51536,1.299261 -9.93116,0.675402 -1.01864,-0.18606 -2.44327,-0.53975 -3.16571,-0.786 -1.71434,-0.584391 -5.08754,-2.36778 -6.09471,-3.222022 l -0.79375,-0.672827 1.36528,0.673859 c 5.51278,2.720851 11.74181,2.203691 16.53749,-1.372521 1.80486,-1.345909 2.55511,-2.166969 3.90726,-4.27778 2.23794,-4.1666 3.03126,-2.667029 1.63917,-6.72142 -0.32406,-0.926489 -0.55366,-1.70929 -0.51003,-1.739429 0.0436,-0.0301 0.44923,-0.30948 0.90125,-0.621159 l 0.82163,-0.566891 1.02011,0.519869 c 1.2937,0.65958 2.37587,0.659371 3.67262,-0.003 z"
         style="opacity:1;vector-effect:none;fill:#ffec01;fill-opacity:1;stroke:none;stroke-width:7.51900101;stroke-linecap:butt;stroke-linejoin:miter;stroke-miterlimit:4;stroke-dasharray:none;stroke-dashoffset:0;stroke-opacity:1" />
      <path
         sodipodi:nodetypes="scccsccccscccsccccccccccccccccccccccccc"
         id="path6768-7-0-2-1-4-8-6-5"
         d="m -181.42876,29.499945 c -1.95382,0 -3.8152,0.39602 -5.50816,1.11207 -1.69294,0.71606 -3.21739,1.75205 -4.49776,3.03243 -1.2804,1.28039 -2.31683,2.80483 -3.03291,4.49779 -0.71605,1.69295 -1.11159,3.55433 -1.11159,5.50814 0,1.9538 0.39554,3.81518 1.11159,5.508121 4.57295,8.08567 3.30837,1.10303 11.59181,24.347099 0.77719,0.739931 2.1168,0.73995 2.89403,0 8.57684,-24.641309 6.84167,-15.51274 11.59181,-24.347099 0.71605,-1.692941 1.11206,-3.554321 1.11206,-5.508121 0,-1.95381 -0.39601,-3.81519 -1.11206,-5.50814 -0.71607,-1.69296 -1.75253,-3.2174 -3.03289,-4.49779 -1.2804,-1.28038 -2.80482,-2.31637 -4.4978,-3.03243 -1.69297,-0.71605 -3.55433,-1.11207 -5.50813,-1.11207 z m -5.45225,15.48427 c 1.02829,-6.9e-5 1.86199,0.83342 1.86217,1.86171 6e-5,1.02846 -0.83371,1.86222 -1.86217,1.862151 -1.02848,6.9e-5 -1.86223,-0.833681 -1.86217,-1.862151 1.9e-4,-1.02829 0.83388,-1.861789 1.86217,-1.86171 z m 10.90448,0 c 1.02829,-6.9e-5 1.86198,0.83342 1.86215,1.86171 7e-5,1.02846 -0.83368,1.86222 -1.86215,1.862151 -1.02846,6.9e-5 -1.86222,-0.833691 -1.86216,-1.862151 1.9e-4,-1.02829 0.83387,-1.861779 1.86216,-1.86171 z m -7.06834,6.002101 c 0.30462,1.59e-4 0.55152,0.24707 0.55169,0.55167 8e-5,0.30481 -0.24688,0.55194 -0.55169,0.55215 -0.30497,1.19e-4 -0.55222,-0.24717 -0.55214,-0.55215 1.7e-4,-0.30479 0.24735,-0.55178 0.55214,-0.55167 z m 3.2322,0 c 0.30481,-1.1e-4 0.552,0.24687 0.55215,0.55167 8e-5,0.30499 -0.24717,0.552269 -0.55215,0.55215 -0.30479,-2.1e-4 -0.55175,-0.24736 -0.55167,-0.55215 1.6e-4,-0.3046 0.24705,-0.551511 0.55167,-0.55167 z m -1.61609,2.214321 c 1.35364,5.8e-5 2.45096,3.455159 2.45096,7.717179 0,4.26203 -1.09733,7.71712 -2.45096,7.71717 -1.35365,0 -2.45099,-3.455119 -2.45096,-7.71717 -3e-5,-4.26206 1.09731,-7.717179 2.45096,-7.717179 z"
         style="opacity:1;fill:#000000;fill-opacity:1;stroke:none;stroke-width:0.7487604;stroke-miterlimit:4;stroke-dasharray:none;stroke-opacity:1"
         inkscape:connector-curvature="0" />
    </g>
  </g>
</svg>
